<?xml version="1.0" standalone="no"?>
<!DOCTYPE svg PUBLIC "-//W3C//DTD SVG 20010904//EN"
 "http://www.w3.org/TR/2001/REC-SVG-20010904/DTD/svg10.dtd">
<svg version="1.0" xmlns="http://www.w3.org/2000/svg"
 width="2496.000000pt" height="2496.000000pt" viewBox="0 0 2496.000000 2496.000000"
 preserveAspectRatio="xMidYMid meet">
<metadata>
Created by potrace 1.14, written by Peter Selinger 2001-2017
</metadata>
<g transform="translate(0.000000,2496.000000) scale(0.100000,-0.100000)"
fill="#000000" stroke="none">
<path d="M7350 22893 c0 -21 5 -152 10 -291 30 -799 165 -1358 433 -1787 209
-336 530 -590 927 -733 306 -110 562 -157 929 -170 l193 -7 -78 -55 c-382
-266 -673 -603 -884 -1022 -56 -112 -682 -1625 -1992 -4818 -1050 -2560 -2630
-6407 -3510 -8548 -879 -2142 -1597 -3896 -1594 -3899 3 -3 166 98 363 224
7347 4717 11636 7507 12363 8041 287 211 606 661 755 1066 48 130 99 333 121
481 23 159 24 447 1 606 -175 1208 -1256 2136 -2661 2284 -126 13 -441 15
-2346 15 -1210 0 -2200 3 -2200 6 0 5 742 1819 792 1936 l20 47 65 -97 c396
-591 1013 -1001 1710 -1136 193 -37 357 -49 586 -43 221 6 344 22 542 69 762
181 1413 701 1764 1409 128 256 210 519 250 795 115 786 -118 1559 -653 2167
l-71 81 78 -54 c368 -253 710 -676 942 -1165 297 -623 455 -1349 497 -2272 12
-269 12 -273 33 -273 21 0 22 6 29 128 33 652 218 1509 451 2097 56 142 207
457 273 570 264 456 602 807 967 1006 l80 43 -97 -104 c-169 -182 -273 -324
-396 -538 -371 -648 -441 -1477 -185 -2192 53 -150 170 -391 248 -515 354
-558 901 -973 1518 -1151 283 -81 501 -108 812 -101 249 6 360 20 585 76 369
92 713 263 1020 507 132 105 345 326 451 466 329 439 506 919 538 1456 43 723
-201 1406 -696 1957 -145 161 -365 344 -551 458 -89 54 -91 67 -14 67 149 0
583 63 758 110 742 197 1328 789 1514 1530 53 210 64 318 65 615 0 161 -5 313
-13 375 -15 127 -42 280 -51 298 -5 8 -18 -3 -42 -34 -69 -92 -225 -202 -447
-313 -333 -167 -670 -264 -1087 -313 -89 -11 -1232 -13 -5935 -13 -5558 0
-5830 1 -5940 18 -384 60 -704 197 -975 417 -75 61 -245 235 -245 251 0 5 -4
9 -10 9 -5 0 -10 -17 -10 -37z m3900 -5242 l0 -1580 -57 5 c-336 28 -610 126
-855 305 -109 81 -277 252 -357 364 -72 102 -168 292 -206 409 -87 262 -105
553 -50 818 41 196 144 432 262 598 86 119 252 286 366 367 144 101 348 199
501 239 102 27 257 52 329 53 l67 1 0 -1579z m7098 2 l-3 -1578 -70 3 c-262
12 -563 115 -797 273 -126 86 -333 294 -417 419 -117 176 -197 368 -242 580
-19 87 -23 137 -23 295 0 222 14 317 74 499 132 393 396 707 760 904 195 105
459 178 653 181 l67 1 -2 -1577z m-4220 -5330 c290 -480 250 -995 -113 -1458
-111 -142 -131 -157 -610 -482 -909 -616 -3480 -2293 -6840 -4461 -825 -532
-2436 -1570 -2463 -1586 -15 -9 -65 -133 453 1126 l430 1046 4540 2940 c2497
1617 4545 2941 4551 2941 7 1 30 -29 52 -66z"/>
</g>
</svg>
